<svg xmlns="http://www.w3.org/2000/svg" width="30" height="31" viewBox="0 0 30 31" fill="none">
  <path d="M6.58654 12.6875C6.58498 11.5761 6.80332 10.4753 7.22899 9.44864C7.65466 8.42195 8.27925 7.48962 9.06679 6.70536C9.85432 5.92109 10.7892 5.30039 11.8177 4.87899C12.8461 4.45759 13.9478 4.24382 15.0592 4.25001C19.6998 4.28516 23.4147 8.14063 23.4147 12.793V13.625C23.4147 17.8203 24.2936 20.2578 25.067 21.5938C25.1492 21.736 25.1925 21.8974 25.1926 22.0617C25.1928 22.226 25.1497 22.3874 25.0678 22.5298C24.9859 22.6723 24.8681 22.7907 24.726 22.8732C24.584 22.9557 24.4227 22.9994 24.2584 23H5.74279C5.57851 22.9994 5.41726 22.9557 5.2752 22.8732C5.13314 22.7907 5.01526 22.6723 4.93337 22.5298C4.85148 22.3874 4.80845 22.226 4.80859 22.0617C4.80874 21.8974 4.85205 21.736 4.9342 21.5938C5.70764 20.2578 6.58654 17.8203 6.58654 13.625V12.6875Z" stroke="white" stroke-linecap="round" stroke-linejoin="round"/>
  <circle cx="23.125" cy="9.875" r="3.875" fill="#FF5E1A" stroke="#222222"/>
  <path d="M11.25 23V23.9375C11.25 24.9321 11.6451 25.8859 12.3483 26.5891C13.0516 27.2924 14.0054 27.6875 15 27.6875C15.9946 27.6875 16.9484 27.2924 17.6516 26.5891C18.3549 25.8859 18.75 24.9321 18.75 23.9375V23" stroke="white" stroke-linecap="round" stroke-linejoin="round"/>
</svg>